<!DOCTYPE svg PUBLIC "-//W3C//DTD SVG 1.1//EN" "http://www.w3.org/Graphics/SVG/1.1/DTD/svg11.dtd">
<!-- Uploaded to: SVG Repo, www.svgrepo.com, Transformed by: SVG Repo Mixer Tools -->
<svg fill="#3200e1" version="1.1" id="Layer_1" xmlns="http://www.w3.org/2000/svg" xmlns:xlink="http://www.w3.org/1999/xlink" viewBox="0 0 24.00 24.00" xml:space="preserve" width="184px" height="184px" stroke="#3200e1" stroke-width="0.00024000000000000003">
<g id="SVGRepo_bgCarrier" stroke-width="0"/>
<g id="SVGRepo_tracerCarrier" stroke-linecap="round" stroke-linejoin="round"/>
<g id="SVGRepo_iconCarrier"> <style type="text/css"> .st0{fill:none;} </style> <path d="M20,2H4C2.9,2,2,2.9,2,4v16c0,1.1,0.9,2,2,2h16c1.1,0,2-0.9,2-2V4C22,2.9,21.1,2,20,2z M16.9,15.6L15.5,17l-3.5-3.5L8.4,17 L7,15.6l3.5-3.5L7,8.5l1.4-1.4l3.5,3.5l3.5-3.5l1.4,1.4L13.4,12L16.9,15.6z"/> <rect class="st0" width="24" height="24"/> </g>
</svg>